<svg width="26" height="26" viewBox="0 0 26 26" fill="none" xmlns="http://www.w3.org/2000/svg">
<path d="M11.8232 0.0392001C9.88173 0.283155 7.99108 0.821889 6.35455 1.60458C5.55153 1.99084 5.29741 2.16364 5.21609 2.3771C5.09411 2.70238 5.16527 2.99715 5.44988 3.3021C5.74466 3.62737 6.12076 3.59688 6.92377 3.19029C7.87926 2.71254 9.22102 2.25512 10.4306 1.99084C11.7114 1.72656 14.5677 1.67573 15.7875 1.89936C17.0174 2.12298 18.5218 2.5804 19.6806 3.07847C20.2803 3.33259 20.88 3.53589 21.0223 3.53589C21.6017 3.53589 22.0083 2.66172 21.6627 2.18397C21.307 1.72656 18.4202 0.649088 16.5397 0.283155C15.4622 0.0696943 12.7075 -0.0726128 11.8232 0.0392001Z" fill="#0A982F"/>
<path d="M11.4672 3.24101C7.87899 3.72892 4.42296 5.61958 2.32902 8.23193C1.58699 9.15692 1.45484 9.51269 1.70896 9.89895C2.13588 10.5495 2.72544 10.4377 3.38615 9.58384C4.44329 8.2116 6.28312 6.7682 7.88916 6.02617C9.8408 5.14183 11.6196 4.80639 13.9067 4.88771C16.1125 4.96903 17.6169 5.35529 19.477 6.30062C21.0932 7.12396 22.1097 7.94731 23.3295 9.40088C23.9902 10.1937 24.0512 10.2446 24.4273 10.2446C24.7322 10.2446 24.8644 10.1836 25.0778 9.92945C25.2201 9.75664 25.3421 9.54318 25.3421 9.44154C25.3421 8.84181 23.2787 6.67671 21.7234 5.6399C20.0462 4.53194 18.4504 3.86107 16.4073 3.42398C15.2688 3.19019 12.5853 3.08854 11.4672 3.24101Z" fill="#0A982F"/>
<path d="M12.4328 6.18882C9.78996 6.37179 7.40124 7.52041 5.38861 9.58386C2.94906 12.0844 2.11555 15.2761 2.88807 19.1184C3.18285 20.5822 3.55895 21.7003 3.82323 21.8833C4.16883 22.1272 4.58559 22.0764 4.92103 21.741C5.26663 21.3852 5.2768 21.2429 5.00235 20.45C4.58559 19.2506 4.39246 18.2239 4.33147 16.9025C4.20949 14.158 4.94136 12.308 6.88283 10.4784C8.1331 9.29925 9.49518 8.55722 11.1724 8.14046C12.1482 7.90667 14.6487 7.90667 15.6246 8.14046C18.491 8.852 21.0932 10.9968 21.9877 13.3753C22.5264 14.7882 22.6688 16.6281 22.2927 17.3498C21.8861 18.1629 21.1034 18.6204 20.1072 18.6204C19.4872 18.6204 19.3144 18.5797 18.8366 18.3154C18.0031 17.8478 17.7185 17.3803 17.5965 16.2825C17.3729 14.1885 16.0921 12.7858 14.11 12.4605C12.6768 12.2165 11.3045 12.6841 10.2982 13.7616C9.46469 14.6561 9.25123 15.2558 9.26139 16.6484C9.29189 20.8363 11.9246 24.272 16.1836 25.6951C16.6817 25.8679 17.1899 26 17.3017 26C17.627 26 18.0234 25.5527 18.0234 25.197C18.0234 24.7599 17.6677 24.4346 16.9053 24.1703C15.3806 23.6418 14.1507 22.8692 13.0427 21.7308C11.8636 20.5313 11.2639 19.3421 10.9996 17.6649C10.8268 16.5366 10.9183 15.7031 11.2842 15.1948C12.0669 14.0767 13.6729 13.7718 14.8114 14.5341C15.4924 14.9814 15.7567 15.4896 15.8787 16.6179C16.0007 17.736 16.2954 18.3866 17.0171 19.1083C17.932 20.0231 19.294 20.45 20.7374 20.2874C22.0284 20.1451 23.2583 19.2811 23.8377 18.0918C24.163 17.4311 24.1731 17.3803 24.1731 16.0893C24.1731 14.6154 24.0105 13.7718 23.4616 12.4808C22.8619 11.0476 21.8149 9.67534 20.5138 8.62837C18.1759 6.74788 15.6246 5.97536 12.4328 6.18882Z" fill="#0A982F"/>
<path d="M12.3415 9.32976C10.6033 9.57371 9.23107 10.2649 7.95031 11.5558C6.93383 12.5825 6.3341 13.6498 6.06982 14.9204C5.78521 16.252 5.97834 18.6 6.48658 20.1654C6.95416 21.5783 8.14344 23.4995 9.47502 24.9835C10.0443 25.6239 10.1459 25.6951 10.4813 25.6951C10.8981 25.6849 11.1217 25.5629 11.2945 25.2173C11.508 24.8209 11.4267 24.6176 10.6948 23.8044C9.71898 22.7066 8.64151 21.0599 8.26541 20.1044C7.69619 18.6204 7.49289 16.313 7.808 15.0729C8.06212 14.1275 8.5297 13.355 9.33272 12.5927C10.7964 11.2001 12.6871 10.6817 14.7201 11.1086C16.2244 11.4237 17.7797 12.5113 18.5319 13.7616C18.9384 14.4325 19.2332 15.449 19.2332 16.2012C19.2434 16.994 19.7923 17.4311 20.453 17.1566C20.9003 16.9737 21.0121 16.6687 20.9409 15.8047C20.6868 12.7655 18.3591 10.1938 15.2486 9.48223C14.3948 9.2891 13.1242 9.22811 12.3415 9.32976Z" fill="#0A982F"/>
<path d="M12.7683 15.7941C12.5142 16.0482 12.504 16.0888 12.565 16.9325C12.6768 18.6199 13.2969 19.9515 14.5268 21.1712C15.2993 21.9438 16.0312 22.4215 17.0273 22.8179C18.7858 23.5295 21.5812 23.499 21.9776 22.7671C22.1402 22.452 22.1097 22.0861 21.8963 21.8218C21.7031 21.588 21.6625 21.5778 20.0869 21.5778C18.6435 21.5778 18.4199 21.5473 17.871 21.3339C15.7262 20.4902 14.2727 18.6605 14.2625 16.7801C14.2625 16.2718 14.11 15.8449 13.8763 15.6721C13.5815 15.4383 13.0631 15.4993 12.7683 15.7941Z" fill="#0A982F"/>
</svg>
