<svg width="65" height="80" viewBox="0 0 65 80" fill="none" xmlns="http://www.w3.org/2000/svg">
<path d="M57.8319 26.3892L53.0655 26.3985L53.2204 20.314C53.5056 9.0906 44.7988 -0.0223096 33.8255 4.10257e-05C22.8459 0.0219964 13.6855 9.17104 13.4003 20.3944L13.2454 26.4789L6.55405 26.4596C2.8356 26.4671 1.02949 30.1745 0.932432 33.9785L0.502374 73.0233C0.40388 76.8852 3.38259 80.0074 7.10105 80L56.4715 79.9007C60.2501 79.8934 63.3923 76.758 63.4897 72.8967L64.4978 33.3C64.5932 29.4954 61.6099 26.3807 57.8319 26.3892ZM22.3953 20.3751C22.5517 14.2245 27.5709 9.20873 33.5908 9.19666C39.6051 9.18449 44.3724 14.1804 44.216 20.3309L44.0609 26.4163L22.2405 26.4596L22.3953 20.3751ZM35.6896 60.4842L35.4322 70.5961C35.4206 71.0235 35.0581 71.337 34.6353 71.3383L29.8975 71.3476C29.535 71.3481 29.1834 71.036 29.195 70.6085L29.4524 60.4966C26.2459 59.2185 23.9911 56.0291 24.0873 52.2248C24.2125 47.3341 28.2099 43.3411 33.0115 43.3314C37.8104 43.3216 41.6045 47.2982 41.4799 52.19C41.3828 55.994 38.9652 59.1938 35.6896 60.4842Z" fill="#0A982F"/>
<path d="M52.9162 26.2357C52.917 26.3592 43.9913 26.5068 32.9823 26.5641C21.9703 26.6221 13.0456 26.5694 13.0447 26.4459C13.0439 26.3225 21.9677 26.1751 32.9805 26.1173C43.9879 26.0595 52.9153 26.1123 52.9162 26.2357Z" fill="#263238"/>
<path d="M61.6799 30.9914C61.6882 30.9916 61.6942 31.0749 61.6978 31.2367C61.7007 31.4238 61.7043 31.6604 61.708 31.9555C61.7063 32.62 61.7035 33.5441 61.7004 34.718C61.6737 37.1509 61.6361 40.6126 61.5888 44.8765C61.5243 49.1754 61.4494 54.2781 61.3647 59.942C61.3085 62.7805 61.2954 65.7454 61.1912 68.8454C61.1025 70.3907 60.9084 72.0076 60.206 73.5064C59.8561 74.2495 59.3658 74.9487 58.7347 75.5155C58.0979 76.0749 57.3385 76.4973 56.5338 76.7761C54.914 77.329 53.2274 77.3924 51.6132 77.4137C49.9983 77.4192 48.4057 77.4243 46.8426 77.4297C43.7161 77.4359 40.7005 77.4427 37.826 77.4497C32.0868 77.4526 26.9151 77.4556 22.5587 77.4582C18.238 77.4441 14.7306 77.4326 12.2664 77.4248C11.078 77.4111 10.1408 77.4007 9.46882 77.3931C9.17037 77.3851 8.93058 77.3785 8.74116 77.3732C8.57629 77.3664 8.49296 77.3591 8.49312 77.3509C8.493 77.3436 8.57717 77.3357 8.74096 77.3275C8.93089 77.3212 9.17045 77.313 9.46817 77.3025C10.1417 77.2906 11.0781 77.2725 12.2663 77.2505C14.7309 77.2238 18.2382 77.1869 22.559 77.1417C26.9143 77.1114 32.0855 77.0762 37.8255 77.038C40.6992 77.0226 43.7151 77.0077 46.8414 76.9914C48.4043 76.9841 49.9951 76.9765 51.6089 76.9688C53.2109 76.9478 54.8547 76.8776 56.3836 76.3539C57.1428 76.0911 57.8443 75.6986 58.4325 75.1842C59.0143 74.6621 59.4682 74.0176 59.7985 73.3188C60.4613 71.9119 60.6591 70.3437 60.7484 68.8223C60.8575 65.7551 60.879 62.7667 60.9472 59.936C61.0682 54.2739 61.1775 49.1705 61.2688 44.8719C61.3767 40.6092 61.463 37.1481 61.5244 34.7165C61.5633 33.5432 61.5947 32.6191 61.6173 31.9556C61.6312 31.6604 61.6431 31.4246 61.6532 31.2375C61.6623 31.0737 61.6716 30.9912 61.6799 30.9914Z" fill="#263238"/>
<path d="M42.5967 11.7164C42.5625 11.7446 42.2394 11.3457 41.5482 10.7419C40.8495 10.1538 39.754 9.36901 38.2213 8.7766C36.701 8.18035 34.7421 7.75771 32.5805 7.90806C30.429 8.051 28.0828 8.82174 26.0748 10.2859C24.0431 11.7335 22.6571 13.747 21.9315 15.7595C21.1862 17.7751 20.9728 19.7283 20.8585 21.3522C20.7583 22.9829 20.778 24.3117 20.7759 25.2288C20.7771 26.147 20.7733 26.6556 20.7405 26.6569C20.7107 26.6574 20.6553 26.1517 20.5992 25.2343C20.5479 24.3168 20.479 22.9862 20.5387 21.3367C20.6126 19.6941 20.7932 17.7038 21.5385 15.6188C22.2624 13.5392 23.7014 11.422 25.8057 9.92417C27.8883 8.40686 30.3238 7.62182 32.5532 7.49616C34.7921 7.36472 36.8 7.83371 38.3437 8.48289C39.9007 9.12852 40.9944 9.97475 41.6684 10.6135C41.9965 10.9448 42.2435 11.2085 42.3872 11.4076C42.5373 11.6016 42.6096 11.7063 42.5967 11.7164Z" fill="#263238"/>
<path d="M31.5558 43.5414C31.5547 43.5292 31.7218 43.5093 32.0454 43.4833C32.3678 43.4531 32.8499 43.4389 33.4736 43.4779C34.0984 43.501 34.8636 43.6271 35.7324 43.8763C36.5951 44.1323 37.5626 44.5694 38.4587 45.3098C40.2936 46.7727 41.4644 49.5663 41.4035 52.7024C41.3499 54.2783 40.798 55.9367 39.7667 57.3657C38.7074 58.7776 37.2627 59.9814 35.5064 60.8031L35.6378 60.6074C35.6645 63.9421 35.694 67.5715 35.7262 71.3479L35.7277 71.5774L35.4952 71.5734C34.8294 71.5615 34.1148 71.5489 33.3958 71.5357C31.8485 71.5074 30.3232 71.4796 28.8263 71.4526L28.6005 71.4482L28.6061 71.2248C28.6911 67.4723 28.5995 63.874 28.7947 60.5341L28.9223 60.734C27.2824 60.0337 26.023 58.8082 25.1474 57.4793C24.2701 56.1397 23.7548 54.6781 23.5619 53.263C23.3811 51.8475 23.5314 50.4652 24.0057 49.3097C24.4584 48.1475 25.1149 47.1818 25.8213 46.4215C27.2371 44.8846 28.7868 44.1492 29.8552 43.8261C30.9397 43.5069 31.5558 43.5414 31.5558 43.5414C31.5624 43.5848 30.9484 43.5984 29.8962 43.9509C28.8607 44.3084 27.363 45.0638 26.0086 46.5866C24.6705 48.0668 23.4643 50.4462 23.9066 53.2169C24.1063 54.5797 24.617 55.9877 25.47 57.2713C26.3214 58.5443 27.5375 59.7053 29.082 60.3548L29.2178 60.4116L29.2097 60.5547C29.0327 63.8772 29.1356 67.4649 29.0555 71.2347L28.8341 71.0074C30.3302 71.0341 31.8561 71.0603 33.4037 71.0878C34.1227 71.101 34.8364 71.1133 35.5031 71.1254L35.2724 71.3502C35.2505 67.5738 35.2287 63.9434 35.21 60.6097L35.2085 60.4751L35.3406 60.4137C36.9997 59.6465 38.4289 58.4756 39.4427 57.1335C40.4383 55.7703 40.9747 54.1987 41.0408 52.6856C41.1236 49.6502 40.0245 46.9346 38.2862 45.5065C37.436 44.7795 36.5067 44.3367 35.6683 44.0672C34.8257 43.8045 34.0765 43.6594 33.4604 43.6147C32.2312 43.5065 31.5578 43.5823 31.5558 43.5414Z" fill="#263238"/>
</svg>